<?xml version="1.0" standalone="no"?>
<!DOCTYPE svg PUBLIC "-//W3C//DTD SVG 20010904//EN"
 "http://www.w3.org/TR/2001/REC-SVG-20010904/DTD/svg10.dtd">
<svg version="1.0" xmlns="http://www.w3.org/2000/svg"
 width="260.000000pt" height="260.000000pt" viewBox="0 0 260.000000 260.000000"
 preserveAspectRatio="xMidYMid meet">
<metadata>
Created by potrace 1.11, written by Peter Selinger 2001-2013
</metadata>
<g transform="translate(0.000000,260.000000) scale(0.100000,-0.100000)"
fill="#000000" stroke="none">
<path d="M870 2560 c-213 -60 -299 -318 -164 -494 52 -69 123 -106 233 -121
67 -10 118 -40 139 -83 31 -61 15 -147 -38 -207 -10 -11 -39 -51 -65 -90 -66
-96 -103 -134 -146 -147 -83 -24 -162 25 -194 121 -37 113 -165 205 -285 204
-128 0 -227 -60 -286 -174 -24 -46 -28 -66 -28 -134 0 -93 20 -149 79 -213 85
-95 238 -125 355 -71 30 14 80 51 111 82 32 31 69 61 84 67 98 37 190 -29 230
-165 20 -70 40 -110 93 -191 47 -72 63 -116 58 -169 -5 -65 -20 -90 -66 -115
-33 -18 -44 -21 -113 -22 -31 0 -60 -4 -63 -9 -3 -5 -10 -7 -15 -3 -14 8 -80
-16 -74 -27 4 -5 -1 -6 -9 -3 -9 3 -26 -5 -41 -20 -14 -14 -25 -22 -25 -19 0
3 -10 -7 -22 -23 -12 -16 -25 -31 -28 -34 -13 -11 -43 -85 -47 -119 -8 -59 -4
-126 7 -129 5 -2 8 -8 5 -12 -10 -17 61 -130 82 -130 8 0 11 -5 7 -12 -5 -8
-2 -9 10 -5 11 4 15 3 11 -4 -4 -6 2 -13 14 -16 12 -3 21 -9 21 -14 0 -5 9 -9
21 -9 13 0 18 4 13 13 -4 7 -3 9 2 4 5 -5 9 -14 9 -20 0 -6 12 -14 26 -18 25
-6 126 -4 159 4 27 6 90 36 90 42 0 3 -5 3 -12 -1 -7 -4 -8 -3 -4 4 3 6 -3 16
-14 22 -11 6 -18 15 -15 21 4 5 1 10 -4 10 -6 1 -17 2 -23 3 -18 1 -19 46 -2
53 8 3 11 9 8 14 -3 5 3 6 12 2 11 -4 13 -8 6 -11 -7 -2 -10 -8 -7 -13 4 -5 0
-6 -7 -4 -9 4 -14 -3 -15 -16 -1 -12 1 -19 4 -15 3 3 14 1 25 -5 11 -6 17 -13
14 -17 -3 -3 6 -13 20 -23 27 -17 27 -17 61 19 20 20 41 49 49 63 12 23 11 29
-1 39 -19 15 -47 -4 -38 -26 3 -8 3 -14 0 -14 -3 0 -7 7 -11 15 -6 17 40 68
55 60 5 -4 9 -2 9 4 0 25 -24 19 -57 -14 -37 -37 -61 -36 -48 4 6 21 25 29 25
11 0 -5 -4 -10 -10 -10 -5 0 -10 -8 -10 -17 0 -15 3 -14 23 5 22 23 22 23 3
38 -11 8 -15 14 -10 14 6 0 15 -5 22 -12 8 -8 15 -8 27 2 13 11 19 11 32 -2
16 -17 9 -43 -9 -32 -6 4 -9 1 -6 -6 2 -8 10 -16 18 -18 7 -3 10 0 6 6 -3 6
-2 13 3 16 10 7 13 166 2 166 -4 0 -7 9 -8 21 -2 26 -23 51 -38 45 -7 -2 -18
0 -26 6 -11 8 -11 9 2 5 29 -9 43 7 28 34 -7 13 -12 38 -11 54 2 22 0 26 -8
15 -7 -12 -9 -11 -8 7 2 14 7 19 18 15 13 -5 13 -4 0 13 -9 11 -10 16 -2 11 6
-4 12 -3 12 3 0 6 11 21 24 34 14 14 22 28 18 33 -4 4 -2 4 5 0 13 -7 50 10
71 34 7 8 11 9 7 3 -4 -9 9 -12 51 -10 62 2 85 22 37 32 -15 4 -35 9 -43 12
-8 4 -18 5 -22 5 -5 -1 -8 3 -8 10 0 6 -7 3 -16 -8 -13 -16 -15 -16 -10 -2 7
22 -63 61 -91 52 -14 -5 -15 -4 -4 4 12 9 12 12 -1 26 -9 8 -18 12 -22 9 -3
-4 -6 1 -6 9 0 9 -3 18 -8 20 -31 13 -115 152 -135 223 -67 235 49 498 266
605 63 31 76 35 159 49 100 17 221 -7 317 -62 61 -34 162 -130 186 -176 8 -17
20 -31 25 -31 20 0 9 44 -27 101 -44 73 -55 146 -28 202 26 55 57 70 167 78
60 5 114 15 142 27 67 30 129 93 161 163 24 55 27 71 23 138 -7 122 -67 213
-175 266 -147 72 -335 10 -408 -134 -51 -102 -52 -184 -4 -288 50 -110 29
-196 -57 -234 -46 -21 -52 -21 -264 -16 -159 4 -188 13 -233 66 -13 16 -28 47
-32 67 -6 33 -1 50 38 123 50 96 60 132 58 207 -2 123 -99 245 -222 281 -41
12 -132 13 -169 3z m220 -1719 c0 -6 -4 -12 -8 -15 -5 -3 -9 1 -9 9 0 8 4 15
9 15 4 0 8 -4 8 -9z m-3 -48 c0 -9 -4 -10 -14 -2 -7 6 -13 12 -13 14 0 1 6 2
13 2 8 0 14 -6 14 -14z m102 14 c-2 -1 -13 -9 -24 -17 -19 -14 -19 -14 -6 3 7
9 18 17 24 17 6 0 8 -1 6 -3z m15 -62 c-4 -8 -8 -15 -11 -15 -3 0 -2 7 1 16 4
11 2 15 -7 11 -8 -3 -14 1 -14 8 0 10 5 11 18 4 11 -5 16 -16 13 -24z m53 16
c-1 -15 -4 -17 -14 -9 -15 12 -17 22 -3 13 6 -3 10 -1 10 4 0 6 2 11 4 11 3 0
4 -9 3 -19z m-105 -23 c-8 -8 -9 -4 -5 13 4 13 8 18 11 10 2 -7 -1 -18 -6 -23z
m172 11 c3 -3 -8 -5 -24 -4 -17 0 -30 3 -30 8 0 8 45 5 54 -4z m-238 -54 c-1
-8 -5 -17 -8 -21 -4 -3 -5 2 -4 13 2 10 -2 25 -8 33 -9 13 -9 13 6 2 9 -7 15
-19 14 -27z m44 9 c0 -8 -19 -13 -24 -6 -3 5 1 9 9 9 8 0 15 -2 15 -3z m-79
-41 c13 -16 12 -17 -3 -4 -10 7 -18 15 -18 17 0 8 8 3 21 -13z m-7 -32 c-2 -3
-12 3 -22 13 -16 17 -16 18 5 5 12 -7 20 -15 17 -18z m-33 -8 c13 -16 12 -17
-3 -4 -10 7 -18 15 -18 17 0 8 8 3 21 -13z m-7 -24 c3 -3 -5 -5 -19 -5 -13 0
-22 3 -19 7 4 8 30 6 38 -2z m-154 -23 c0 -2 -8 -10 -17 -17 -16 -13 -17 -12
-4 4 13 16 21 21 21 13z m200 -15 c0 -5 -8 -11 -18 -13 -11 -3 -19 0 -19 7 0
8 7 11 15 7 11 -4 13 -1 7 8 -5 9 -4 11 3 6 7 -4 12 -11 12 -15z m-345 -21 c3
-5 1 -10 -4 -10 -6 0 -11 5 -11 10 0 6 2 10 4 10 3 0 8 -4 11 -10z m378 -20
c4 -17 2 -18 -14 -9 -10 5 -19 12 -19 15 0 3 5 2 12 -2 8 -5 9 -2 5 10 -4 9
-3 15 2 12 5 -3 11 -15 14 -26z m-303 6 c0 -2 -8 -10 -17 -17 -16 -13 -17 -12
-4 4 13 16 21 21 21 13z m270 -26 c0 -5 -4 -10 -10 -10 -5 0 -10 5 -10 10 0 6
5 10 10 10 6 0 10 -4 10 -10z m-355 -20 c-3 -5 -12 -10 -18 -10 -7 0 -6 4 3
10 19 12 23 12 15 0z m75 6 c0 -2 -7 -7 -16 -10 -8 -3 -12 -2 -9 4 6 10 25 14
25 6z m100 -5 c0 -6 -4 -12 -8 -15 -5 -3 -9 1 -9 9 0 8 4 15 9 15 4 0 8 -4 8
-9z m54 1 c3 -5 -1 -9 -9 -9 -8 0 -12 4 -9 9 3 4 7 8 9 8 2 0 6 -4 9 -8z m96
-2 c0 -5 -5 -10 -11 -10 -5 0 -7 5 -4 10 3 6 8 10 11 10 2 0 4 -4 4 -10z
m-390 -14 c0 -3 -4 -8 -10 -11 -5 -3 -10 -1 -10 4 0 6 5 11 10 11 6 0 10 -2
10 -4z m368 -27 c-3 -8 -7 -3 -11 10 -4 17 -3 21 5 13 5 -5 8 -16 6 -23z m52
21 c0 -5 -4 -10 -10 -10 -5 0 -10 5 -10 10 0 6 5 10 10 10 6 0 10 -4 10 -10z
m60 0 c0 -5 -5 -10 -11 -10 -5 0 -7 5 -4 10 3 6 8 10 11 10 2 0 4 -4 4 -10z
m-213 -18 c-10 -10 -14 -22 -10 -25 3 -4 1 -7 -5 -7 -6 0 -10 9 -9 19 0 11 4
18 8 15 4 -2 10 0 14 6 3 5 9 10 12 10 3 0 -1 -8 -10 -18z m69 -26 c1 -9 -4
-12 -13 -9 -12 5 -12 7 -1 14 12 8 4 13 -15 10 -5 -1 -5 4 -2 10 9 13 28 -3
31 -25z m51 12 c-3 -8 -6 -5 -6 6 -1 11 2 17 5 13 3 -3 4 -12 1 -19z m55 5
c-11 -18 -42 -27 -42 -11 0 6 7 8 15 4 9 -3 15 0 15 9 0 8 5 15 10 15 7 0 8
-6 2 -17z m53 -2 c3 -5 0 -13 -6 -17 -7 -4 -9 -3 -5 4 3 5 0 13 -6 15 -9 4
-10 6 -1 6 6 1 14 -3 18 -8z m-4 -33 c5 1 9 -2 9 -8 0 -23 -33 -4 -43 25 l-7
20 16 -20 c8 -11 20 -19 25 -17z m-129 -20 c-6 -6 -12 -6 -17 3 -6 8 -4 10 5
4 9 -5 10 -1 6 16 -6 21 -6 22 5 6 7 -13 8 -22 1 -29z m-351 15 c13 -16 12
-17 -3 -4 -17 13 -22 21 -14 21 2 0 10 -8 17 -17z m159 12 c0 -2 -6 -8 -13
-14 -10 -8 -14 -7 -14 2 0 8 6 14 14 14 7 0 13 -1 13 -2z m130 -5 c0 -5 -5
-10 -11 -10 -5 0 -7 5 -4 10 3 6 8 10 11 10 2 0 4 -4 4 -10z m95 -11 c-4 -5
-2 -9 4 -9 5 0 12 5 14 10 3 6 4 5 3 -2 -4 -19 -29 -16 -32 5 -1 9 2 15 7 11
5 -3 7 -10 4 -15z m-205 -3 c0 -2 -8 -10 -17 -17 -16 -13 -17 -12 -4 4 13 16
21 21 21 13z m150 -21 c11 -13 10 -14 -4 -9 -9 3 -16 10 -16 15 0 13 6 11 20
-6z m130 4 c13 -8 12 -12 -7 -26 -13 -8 -23 -22 -23 -29 0 -20 18 -17 23 4 4
15 5 15 6 0 2 -26 -20 -33 -36 -12 -8 10 -19 18 -24 17 -5 -2 -9 2 -9 8 0 6 7
8 16 5 17 -7 58 17 47 27 -10 11 -35 8 -28 -3 3 -5 1 -10 -4 -10 -12 0 -14 13
-4 23 9 10 26 8 43 -4z m-493 -18 c0 -11 -5 -18 -9 -15 -4 3 -5 11 -1 19 7 21
12 19 10 -4z m73 14 c0 -2 -6 -8 -13 -14 -10 -8 -14 -7 -14 2 0 8 6 14 14 14
7 0 13 -1 13 -2z m186 -7 c3 -4 -1 -5 -10 -4 -8 1 -18 5 -22 8 -3 4 1 5 10 4
8 -1 18 -5 22 -8z m31 -10 c-3 -8 -6 -5 -6 6 -1 11 2 17 5 13 3 -3 4 -12 1
-19z m133 7 c0 -2 -9 -3 -19 -2 -11 0 -18 5 -15 9 4 6 34 0 34 -7z m96 -17
c-9 -12 -16 -19 -16 -15 0 11 24 47 28 42 2 -2 -3 -14 -12 -27z m-158 -13 c-3
-3 -9 2 -12 12 -6 14 -5 15 5 6 7 -7 10 -15 7 -18z m72 -18 c13 4 13 3 0 -6
-11 -8 -18 -7 -26 4 -6 8 -14 12 -18 8 -4 -4 -4 1 0 11 7 18 8 17 18 -1 6 -11
18 -18 26 -16z m-313 16 c-4 -3 -1 -13 6 -22 11 -14 10 -14 -5 -2 -21 15 -23
31 -6 31 6 0 8 -3 5 -7z m36 -11 c15 -16 15 -19 2 -19 -8 0 -13 3 -10 5 3 3 0
11 -6 19 -17 20 -5 16 14 -5z m128 5 c-6 -8 -8 -17 -4 -20 3 -4 1 -7 -5 -7
-15 0 -15 13 0 28 16 16 23 15 9 -1z m59 3 c0 -5 -4 -10 -10 -10 -5 0 -10 5
-10 10 0 6 5 10 10 10 6 0 10 -4 10 -10z m187 -9 c0 -11 -7 -17 -14 -14 -9 4
-9 8 0 19 16 17 16 17 14 -5z m-151 -33 c-1 -12 -8 -24 -14 -26 -7 -2 -10 -8
-7 -13 4 -5 -1 -6 -10 -3 -10 4 -15 2 -13 -7 2 -7 -6 -14 -17 -16 -18 -3 -18
-2 -2 5 10 4 17 11 15 16 -2 4 6 13 17 19 26 16 33 49 8 41 -15 -5 -15 -4 -3
4 19 14 30 6 26 -20z m-280 -4 c1 -9 0 -13 -4 -10 -3 4 -7 14 -8 22 -1 9 0 13
4 10 3 -4 7 -14 8 -22z m212 6 c-7 -11 -15 -15 -17 -9 -2 6 3 15 10 20 20 12
21 11 7 -11z m-292 -2 c3 -4 -1 -5 -10 -4 -8 1 -18 5 -22 8 -3 4 1 5 10 4 8
-1 18 -5 22 -8z m219 -20 c-7 -32 -13 -32 -11 1 0 16 4 27 8 25 4 -2 5 -14 3
-26z m170 22 c3 -5 1 -10 -4 -10 -6 0 -11 5 -11 10 0 6 2 10 4 10 3 0 8 -4 11
-10z m-95 -35 c-7 -8 -16 -15 -21 -15 -5 0 -1 8 9 18 20 22 31 19 12 -3z
m-231 2 c-2 -2 -11 -8 -20 -15 -12 -9 -16 -9 -16 1 0 7 9 14 20 14 11 1 18 1
16 0z m194 -17 c9 -11 13 -20 7 -20 -5 0 -14 9 -20 20 -6 11 -9 20 -8 20 2 0
11 -9 21 -20z m-193 -15 c-6 -8 -8 -20 -4 -27 5 -10 4 -10 -6 -1 -11 10 -11
15 0 28 7 8 15 15 17 15 3 0 0 -7 -7 -15z m77 -5 c1 -11 -2 -20 -5 -20 -4 0
-8 9 -9 20 -1 11 2 20 5 20 4 0 8 -9 9 -20z m233 10 c-20 -13 -33 -13 -25 0 3
6 14 10 23 10 15 0 15 -2 2 -10z m-160 -14 c-1 -5 4 -13 12 -18 11 -8 11 -9 0
-6 -8 2 -13 7 -12 12 1 5 -4 13 -12 18 -11 8 -11 9 0 6 8 -2 13 -7 12 -12z
m166 -17 c-15 -22 -11 -53 5 -43 5 3 9 0 9 -5 0 -16 -20 -13 -26 4 -4 8 -10
12 -15 9 -5 -3 -1 9 9 25 9 17 21 31 25 31 5 0 1 -10 -7 -21z m104 6 c0 -8 -4
-15 -8 -15 -5 0 -9 7 -9 15 0 8 4 15 9 15 4 0 8 -7 8 -15z m-80 -16 c-7 -11
-14 -18 -17 -15 -3 3 0 12 7 21 18 21 23 19 10 -6z m-203 -4 c5 -4 2 -5 -6 0
-11 6 -13 4 -8 -7 4 -12 1 -14 -14 -11 -11 3 -22 9 -25 14 -3 5 3 6 12 2 11
-4 15 -3 11 4 -8 13 19 11 30 -2z m61 -10 c-3 -3 -9 2 -12 12 -6 14 -5 15 5 6
7 -7 10 -15 7 -18z m164 -2 c-5 -10 -7 -24 -5 -30 3 -7 0 -13 -7 -13 -6 0 -8
-4 -5 -10 4 -6 -1 -7 -11 -3 -15 5 -15 7 0 15 9 5 14 13 11 18 -3 5 0 18 7 29
15 25 23 20 10 -6z m-430 2 c2 3 5 -2 5 -10 0 -19 0 -19 -23 7 -12 14 -13 18
-3 10 9 -6 18 -10 21 -7z m47 1 c9 -10 8 -15 -2 -19 -8 -3 -13 3 -13 14 0 23
0 23 15 5z m248 -8 c-3 -8 -6 -5 -6 6 -1 11 2 17 5 13 3 -3 4 -12 1 -19z
m-170 -2 c5 -5 2 -6 -6 -1 -11 6 -13 4 -8 -11 6 -17 6 -17 -5 -3 -7 9 -19 14
-25 12 -7 -3 -13 0 -13 5 0 11 46 9 57 -2z m117 0 c-4 -9 2 -13 18 -12 18 1
23 -4 21 -22 -2 -13 0 -21 5 -18 4 2 15 -2 25 -9 17 -13 17 -14 -3 -20 -12 -4
-24 -4 -27 -1 -4 3 2 6 12 6 20 0 11 15 -8 15 -7 0 -11 10 -10 21 2 16 -3 21
-20 20 -13 -1 -23 6 -25 17 -2 9 1 17 7 17 6 0 8 -6 5 -14z m219 -4 c-21 -22
-26 -21 -17 2 3 9 12 16 20 16 11 0 10 -4 -3 -18z m-229 -42 c-6 -5 -24 21
-24 34 0 6 6 1 14 -10 8 -10 12 -21 10 -24z m-71 17 c4 3 7 1 7 -5 0 -17 -16
-15 -31 6 -12 15 -12 16 2 5 9 -7 19 -10 22 -6z m-97 -9 c3 -4 -1 -5 -10 -4
-8 1 -18 5 -22 8 -3 4 1 5 10 4 8 -1 18 -5 22 -8z m136 -12 c7 4 8 2 4 -5 -9
-13 -26 -5 -25 12 0 9 2 8 6 -1 2 -6 10 -9 15 -6z m148 -21 c0 -5 -5 -3 -10 5
-5 8 -10 20 -10 25 0 6 5 3 10 -5 5 -8 10 -19 10 -25z m-207 -5 c3 -11 2 -18
-3 -15 -4 3 -10 14 -13 25 -3 11 -2 18 3 15 4 -3 10 -14 13 -25z m121 14 c3
-8 2 -12 -4 -9 -6 3 -10 10 -10 16 0 14 7 11 14 -7z m-24 -20 c0 -2 -7 -4 -15
-4 -8 0 -15 4 -15 10 0 5 7 7 15 4 8 -4 15 -8 15 -10z m130 1 c0 -8 -4 -15
-10 -15 -5 0 -7 7 -4 15 4 8 8 15 10 15 2 0 4 -7 4 -15z m-174 -11 c18 -14 18
-14 -6 -3 -31 14 -36 19 -24 19 6 0 19 -7 30 -16z m74 -4 c0 -5 -4 -10 -10
-10 -5 0 -10 5 -10 10 0 6 5 10 10 10 6 0 10 -4 10 -10z m65 0 c-3 -5 -11 -10
-16 -10 -6 0 -7 5 -4 10 3 6 11 10 16 10 6 0 7 -4 4 -10z m-105 -20 c-8 -5
-19 -10 -25 -10 -5 0 -3 5 5 10 8 5 20 10 25 10 6 0 3 -5 -5 -10z"/>
<path d="M1805 859 c-4 -6 -13 -8 -21 -5 -8 3 -11 0 -7 -10 5 -13 8 -13 24 2
19 17 23 24 15 24 -3 0 -8 -5 -11 -11z"/>
<path d="M1747 831 c-3 -13 -1 -18 9 -14 7 2 10 11 7 19 -7 19 -10 18 -16 -5z"/>
<path d="M1710 821 c0 -10 29 -36 34 -30 1 2 -6 12 -16 22 -10 9 -18 13 -18 8z"/>
<path d="M1807 819 c7 -7 15 -10 18 -7 3 3 -2 9 -12 12 -14 6 -15 5 -6 -5z"/>
<path d="M1635 780 c3 -5 8 -10 11 -10 2 0 4 5 4 10 0 6 -5 10 -11 10 -5 0 -7
-4 -4 -10z"/>
<path d="M1699 788 c0 -2 -2 -16 -3 -31 -2 -26 -1 -27 11 -10 9 11 10 19 3 21
-5 2 -8 8 -4 13 3 5 3 9 0 9 -3 0 -6 -1 -7 -2z"/>
<path d="M1790 786 c0 -2 7 -7 16 -10 8 -3 12 -2 9 4 -6 10 -25 14 -25 6z"/>
<path d="M1614 772 c6 -9 1 -11 -18 -8 -16 3 -24 1 -20 -5 3 -6 8 -8 11 -5 3
3 14 1 23 -4 14 -7 18 -6 16 5 -1 8 -6 18 -11 22 -4 4 -5 2 -1 -5z"/>
<path d="M1770 766 c0 -2 7 -7 16 -10 8 -3 12 -2 9 4 -6 10 -25 14 -25 6z"/>
<path d="M1352 743 c-9 -16 -6 -18 28 -18 21 0 36 3 34 7 -7 11 4 10 26 -2 13
-7 21 -7 25 0 4 6 11 8 16 5 5 -4 9 -2 9 3 0 5 -24 8 -52 7 -29 -1 -58 2 -65
7 -8 6 -15 3 -21 -9z"/>
<path d="M1836 738 c5 -7 2 -9 -8 -6 -8 4 -15 0 -15 -7 0 -10 5 -11 19 -4 16
9 17 29 2 29 -3 0 -2 -5 2 -12z"/>
<path d="M1764 719 c-3 -6 -1 -16 5 -22 9 -9 10 -7 5 7 -6 15 -4 17 6 11 9 -5
11 -4 6 3 -9 15 -13 15 -22 1z"/>
<path d="M1786 682 c-3 -5 1 -9 9 -9 8 0 15 4 15 9 0 4 -4 8 -9 8 -6 0 -12 -4
-15 -8z"/>
<path d="M1840 660 c-8 -5 -11 -10 -6 -10 6 0 1 -7 -10 -16 -18 -15 -18 -15 2
-5 15 7 25 7 34 -2 12 -10 12 -9 1 5 -7 9 -10 22 -6 28 8 12 4 13 -15 0z"/>
<path d="M1950 663 c0 -5 10 -18 23 -29 l22 -19 -20 25 c-11 14 -21 27 -22 29
-2 2 -3 0 -3 -6z"/>
<path d="M1996 662 c-3 -5 1 -9 9 -9 8 0 12 4 9 9 -3 4 -7 8 -9 8 -2 0 -6 -4
-9 -8z"/>
<path d="M2110 656 c0 -2 8 -10 18 -17 15 -13 16 -12 3 4 -13 16 -21 21 -21
13z"/>
<path d="M2020 626 c0 -2 8 -10 18 -17 15 -13 16 -12 3 4 -13 16 -21 21 -21
13z"/>
<path d="M1873 590 c1 -21 10 -18 13 5 1 8 -2 15 -6 15 -5 0 -8 -9 -7 -20z"/>
<path d="M2060 606 c0 -2 8 -10 18 -17 15 -13 16 -12 3 4 -13 16 -21 21 -21
13z"/>
<path d="M1957 568 c19 -21 31 -25 14 -5 -6 8 -9 16 -6 19 3 2 -2 5 -10 5 -13
0 -13 -3 2 -19z"/>
<path d="M1987 579 c7 -7 15 -10 18 -7 3 3 -2 9 -12 12 -14 6 -15 5 -6 -5z"/>
<path d="M2160 580 c-9 -6 -10 -10 -3 -10 6 0 15 5 18 10 8 12 4 12 -15 0z"/>
<path d="M1806 561 c-3 -5 1 -11 9 -14 9 -4 12 -1 8 9 -6 16 -10 17 -17 5z"/>
<path d="M1837 535 c-4 -8 -3 -16 1 -19 4 -3 9 4 9 15 2 23 -3 25 -10 4z"/>
<path d="M1907 537 c2 -4 -1 -16 -8 -25 -8 -9 -1 -6 14 7 15 14 27 25 27 26 0
0 -9 1 -19 1 -11 0 -17 -4 -14 -9z"/>
<path d="M2004 539 c-3 -6 -2 -15 3 -20 5 -5 9 -1 9 11 0 23 -2 24 -12 9z"/>
<path d="M1976 527 c3 -10 9 -15 12 -12 3 3 0 11 -7 18 -10 9 -11 8 -5 -6z"/>
<path d="M2030 526 c0 -8 4 -17 9 -20 5 -4 7 3 4 14 -6 23 -13 26 -13 6z"/>
<path d="M1953 515 c0 -8 4 -12 9 -9 5 3 6 10 3 15 -9 13 -12 11 -12 -6z"/>
<path d="M1780 516 c0 -2 7 -7 16 -10 8 -3 12 -2 9 4 -6 10 -25 14 -25 6z"/>
<path d="M2069 503 c-13 -16 -12 -17 4 -4 16 13 21 21 13 21 -2 0 -10 -8 -17
-17z"/>
<path d="M1916 487 c3 -10 9 -15 12 -12 3 3 0 11 -7 18 -10 9 -11 8 -5 -6z"/>
<path d="M1972 491 c-11 -6 -10 -10 0 -19 11 -8 14 -7 14 9 0 10 0 19 -1 19 0
0 -6 -4 -13 -9z"/>
<path d="M2013 478 c-1 -11 1 -16 5 -12 4 5 11 12 15 15 5 3 2 9 -5 12 -9 3
-14 -3 -15 -15z"/>
<path d="M1810 486 c0 -2 7 -7 16 -10 8 -3 12 -2 9 4 -6 10 -25 14 -25 6z"/>
<path d="M1867 473 c3 -7 8 -13 12 -13 4 0 8 6 8 13 0 8 -6 14 -13 14 -7 0
-10 -6 -7 -14z"/>
<path d="M1775 471 c-3 -5 0 -13 6 -17 7 -4 9 -3 5 4 -3 5 0 13 6 15 9 4 10 6
1 6 -6 1 -14 -3 -18 -8z"/>
<path d="M1805 460 c-8 -13 3 -30 18 -29 9 0 9 2 0 6 -7 2 -13 9 -13 14 0 6 5
7 12 3 7 -4 8 -3 4 4 -9 15 -13 15 -21 2z"/>
<path d="M2039 453 c-13 -16 -12 -17 4 -4 16 13 21 21 13 21 -2 0 -10 -8 -17
-17z"/>
<path d="M2107 459 c7 -7 15 -10 18 -7 3 3 -2 9 -12 12 -14 6 -15 5 -6 -5z"/>
<path d="M2290 456 c0 -2 8 -10 18 -17 15 -13 16 -12 3 4 -13 16 -21 21 -21
13z"/>
<path d="M1766 437 c3 -10 9 -15 12 -12 3 3 0 11 -7 18 -10 9 -11 8 -5 -6z"/>
<path d="M1877 431 c-10 -14 -10 -14 4 -4 9 7 18 10 21 7 3 -3 8 -1 12 4 9 16
-24 9 -37 -7z"/>
<path d="M1977 436 c-4 -10 -1 -13 8 -9 8 3 12 9 9 14 -7 12 -11 11 -17 -5z"/>
<path d="M2010 441 c0 -6 4 -13 10 -16 6 -3 7 1 4 9 -7 18 -14 21 -14 7z"/>
<path d="M2216 433 c-6 -14 -5 -15 5 -6 7 7 10 15 7 18 -3 3 -9 -2 -12 -12z"/>
<path d="M1790 420 c0 -6 7 -10 15 -10 8 0 15 2 15 4 0 2 -7 6 -15 10 -8 3
-15 1 -15 -4z"/>
<path d="M1835 420 c-3 -6 1 -7 9 -4 18 7 21 14 7 14 -6 0 -13 -4 -16 -10z"/>
<path d="M1753 407 c0 -9 4 -14 8 -12 4 3 10 -2 13 -11 3 -8 10 -12 16 -9 5 3
10 -1 10 -9 0 -9 5 -16 10 -16 7 0 7 7 0 21 -7 11 -14 18 -17 15 -3 -3 -13 4
-23 16 -13 17 -17 18 -17 5z"/>
<path d="M1850 406 c0 -2 7 -7 16 -10 8 -3 12 -2 9 4 -6 10 -25 14 -25 6z"/>
<path d="M1912 399 c-19 -7 -23 -29 -6 -29 3 0 2 5 -1 10 -9 14 9 12 24 -2 10
-11 11 -9 5 6 -6 15 -4 17 6 11 9 -5 11 -4 6 3 -4 7 -8 12 -9 11 -1 0 -12 -4
-25 -10z"/>
<path d="M2016 393 c-6 -14 -5 -15 5 -6 7 7 10 15 7 18 -3 3 -9 -2 -12 -12z"/>
<path d="M2150 395 c5 -7 6 -16 2 -21 -4 -5 -3 -5 2 -1 15 12 15 34 0 34 -9 0
-11 -4 -4 -12z"/>
<path d="M2215 400 c-3 -5 -1 -10 4 -10 6 0 11 5 11 10 0 6 -2 10 -4 10 -3 0
-8 -4 -11 -10z"/>
<path d="M1855 380 c3 -5 2 -10 -3 -10 -6 0 -13 -8 -16 -17 -6 -15 -5 -15 13
1 18 16 20 36 5 36 -3 0 -2 -4 1 -10z"/>
<path d="M1770 356 c14 -18 13 -19 -2 -13 -10 3 -19 3 -22 -1 -3 -4 4 -8 14
-9 27 -2 33 12 12 28 -16 13 -16 13 -2 -5z"/>
<path d="M1887 359 c7 -7 15 -10 18 -7 3 3 -2 9 -12 12 -14 6 -15 5 -6 -5z"/>
<path d="M1940 360 c-8 -5 -10 -10 -5 -10 6 0 17 5 25 10 8 5 11 10 5 10 -5 0
-17 -5 -25 -10z"/>
<path d="M2070 365 c0 -7 30 -13 34 -7 3 4 -4 9 -15 9 -10 1 -19 0 -19 -2z"/>
<path d="M2226 362 c-3 -5 1 -9 9 -9 8 0 12 4 9 9 -3 4 -7 8 -9 8 -2 0 -6 -4
-9 -8z"/>
<path d="M1854 335 c-4 -8 -9 -13 -13 -11 -4 3 -7 -6 -7 -19 0 -21 10 -26 11
-7 1 4 6 17 13 30 7 12 10 22 7 22 -3 0 -8 -7 -11 -15z"/>
<path d="M1988 343 c6 -2 18 -2 25 0 6 3 1 5 -13 5 -14 0 -19 -2 -12 -5z"/>
<path d="M2033 333 c0 -9 4 -10 14 -2 7 6 13 12 13 14 0 1 -6 2 -13 2 -8 0
-14 -6 -14 -14z"/>
<path d="M2113 330 c-1 -11 2 -20 7 -20 4 0 7 7 6 15 -3 23 -12 26 -13 5z"/>
<path d="M2150 336 c7 -7 13 -7 20 0 6 6 3 10 -10 10 -13 0 -16 -4 -10 -10z"/>
<path d="M1875 330 c-3 -6 1 -7 9 -4 18 7 21 14 7 14 -6 0 -13 -4 -16 -10z"/>
<path d="M1781 320 c-9 -5 -4 -7 13 -7 29 0 32 2 13 10 -8 3 -20 2 -26 -3z"/>
<path d="M1973 313 c0 -9 4 -10 13 -2 7 6 19 7 25 3 7 -4 9 -3 5 4 -9 15 -43
11 -43 -5z"/>
<path d="M2059 313 c-13 -16 -12 -17 4 -4 16 13 21 21 13 21 -2 0 -10 -8 -17
-17z"/>
<path d="M2199 328 c-5 -18 -6 -38 -1 -34 7 8 12 36 6 36 -2 0 -4 -1 -5 -2z"/>
<path d="M2300 326 c0 -2 8 -10 18 -17 15 -13 16 -12 3 4 -13 16 -21 21 -21
13z"/>
<path d="M1920 316 c0 -2 7 -7 16 -10 8 -3 12 -2 9 4 -6 10 -25 14 -25 6z"/>
<path d="M2156 307 c3 -10 9 -15 12 -12 3 3 0 11 -7 18 -10 9 -11 8 -5 -6z"/>
<path d="M2076 302 c-3 -5 1 -9 9 -9 8 0 12 4 9 9 -3 4 -7 8 -9 8 -2 0 -6 -4
-9 -8z"/>
<path d="M2239 293 c-13 -16 -12 -17 4 -4 16 13 21 21 13 21 -2 0 -10 -8 -17
-17z"/>
<path d="M1755 290 c3 -5 8 -10 11 -10 2 0 4 5 4 10 0 6 -5 10 -11 10 -5 0 -7
-4 -4 -10z"/>
<path d="M1791 284 c0 -11 3 -14 6 -6 3 7 2 16 -1 19 -3 4 -6 -2 -5 -13z"/>
<path d="M1860 275 c0 -8 2 -15 4 -15 2 0 6 7 10 15 3 8 1 15 -4 15 -6 0 -10
-7 -10 -15z"/>
<path d="M1950 279 c0 -5 5 -7 10 -4 6 3 10 8 10 11 0 2 -4 4 -10 4 -5 0 -10
-5 -10 -11z"/>
<path d="M2031 287 c2 -1 13 -9 24 -17 19 -14 19 -14 6 3 -7 9 -18 17 -24 17
-6 0 -8 -1 -6 -3z"/>
<path d="M1895 271 c-3 -5 0 -13 6 -17 7 -4 9 -3 5 4 -3 5 0 13 6 15 9 4 10 6
1 6 -6 1 -14 -3 -18 -8z"/>
<path d="M1773 253 c0 -12 4 -20 8 -17 4 2 9 -1 11 -8 3 -7 7 -4 12 7 4 11 4
16 0 12 -4 -4 -13 1 -20 11 -12 16 -13 15 -11 -5z"/>
<path d="M1830 260 c0 -5 5 -10 10 -10 6 0 10 5 10 10 0 6 -4 10 -10 10 -5 0
-10 -4 -10 -10z"/>
<path d="M1990 260 c0 -5 5 -10 10 -10 6 0 10 5 10 10 0 6 -4 10 -10 10 -5 0
-10 -4 -10 -10z"/>
<path d="M2235 261 c-3 -5 -2 -12 3 -15 5 -3 9 1 9 9 0 17 -3 19 -12 6z"/>
<path d="M2155 221 c0 -22 3 -37 7 -35 7 5 5 60 -3 68 -3 3 -5 -12 -4 -33z"/>
<path d="M1855 240 c-3 -5 -1 -10 4 -10 6 0 11 5 11 10 0 6 -2 10 -4 10 -3 0
-8 -4 -11 -10z"/>
<path d="M1887 239 c7 -7 15 -10 18 -7 3 3 -2 9 -12 12 -14 6 -15 5 -6 -5z"/>
<path d="M2065 239 c3 -4 13 -6 23 -4 9 1 26 -5 37 -13 19 -16 19 -16 3 3 -17
18 -73 31 -63 14z"/>
<path d="M1815 230 c-7 -12 19 -24 37 -17 7 3 3 6 -10 6 -13 1 -20 5 -17 11 3
6 4 10 1 10 -3 0 -8 -5 -11 -10z"/>
<path d="M2037 217 c4 -6 0 -8 -10 -4 -11 4 -14 2 -10 -9 5 -13 8 -13 24 2 23
21 23 21 4 21 -8 0 -11 -5 -8 -10z"/>
<path d="M2190 216 c7 -7 13 -7 20 0 6 6 3 10 -10 10 -13 0 -16 -4 -10 -10z"/>
<path d="M2233 215 c0 -8 4 -12 9 -9 5 3 6 10 3 15 -9 13 -12 11 -12 -6z"/>
<path d="M1908 213 c6 -2 10 -8 8 -12 -3 -4 1 -8 8 -8 8 0 12 6 9 14 -3 7 -13
13 -22 12 -10 0 -11 -2 -3 -6z"/>
<path d="M1790 200 c0 -5 5 -10 10 -10 6 0 10 5 10 10 0 6 -4 10 -10 10 -5 0
-10 -4 -10 -10z"/>
<path d="M2066 200 c5 -8 9 -21 10 -28 2 -8 5 -17 8 -20 4 -3 5 4 3 16 -2 12
-9 28 -17 35 -10 10 -11 9 -4 -3z"/>
<path d="M1816 181 c-4 -5 -1 -13 5 -17 8 -4 9 -3 5 4 -4 7 -3 12 3 12 5 0 12
-5 14 -10 3 -6 4 -5 3 2 -3 16 -23 22 -30 9z"/>
<path d="M1953 183 c4 -3 1 -13 -6 -22 -11 -14 -10 -14 6 -2 20 15 22 31 5 31
-6 0 -8 -3 -5 -7z"/>
<path d="M2109 178 c11 -15 11 -21 0 -35 -12 -17 -12 -17 6 0 19 17 19 17 0
35 -18 16 -18 16 -6 0z"/>
<path d="M2260 186 c0 -2 8 -10 18 -17 15 -13 16 -12 3 4 -13 16 -21 21 -21
13z"/>
<path d="M1877 165 c-4 -8 -3 -16 1 -19 4 -3 9 4 9 15 2 23 -3 25 -10 4z"/>
<path d="M1908 153 c7 -3 16 -2 19 1 4 3 -2 6 -13 5 -11 0 -14 -3 -6 -6z"/>
<path d="M1836 138 c3 -5 8 -7 12 -4 3 3 10 -2 17 -11 9 -13 14 -13 20 -3 5 8
4 11 -3 6 -5 -3 -12 -1 -14 6 -2 6 -12 12 -21 14 -9 1 -14 -2 -11 -8z"/>
<path d="M2147 140 c6 -8 9 -23 8 -32 -2 -10 0 -20 4 -23 14 -8 6 44 -9 57
-12 11 -12 10 -3 -2z"/>
<path d="M1946 125 c-11 -8 -15 -15 -9 -15 6 0 16 7 23 15 16 19 11 19 -14 0z"/>
<path d="M1988 133 c7 -3 16 -2 19 1 4 3 -2 6 -13 5 -11 0 -14 -3 -6 -6z"/>
<path d="M1910 111 c0 -7 -5 -9 -12 -5 -7 5 -8 3 -3 -5 5 -9 10 -10 18 -2 6 6
8 14 4 18 -4 3 -7 1 -7 -6z"/>
<path d="M2000 111 c0 -6 4 -13 10 -16 6 -3 7 1 4 9 -7 18 -14 21 -14 7z"/>
<path d="M2110 116 c0 -2 8 -10 18 -17 15 -13 16 -12 3 4 -13 16 -21 21 -21
13z"/>
<path d="M2190 96 c7 -7 13 -7 20 0 6 6 3 10 -10 10 -13 0 -16 -4 -10 -10z"/>
<path d="M1950 89 c0 -5 5 -7 10 -4 6 3 10 8 10 11 0 2 -4 4 -10 4 -5 0 -10
-5 -10 -11z"/>
<path d="M2046 91 c-17 -6 -17 -8 -4 -14 10 -3 19 0 22 9 3 8 4 14 3 13 -1 0
-11 -4 -21 -8z"/>
<path d="M2094 74 c1 -8 4 -15 7 -16 2 -2 3 -1 2 1 -2 2 2 9 7 16 7 8 5 12 -4
12 -8 0 -13 -6 -12 -13z"/>
<path d="M1977 73 c-3 -5 6 -9 20 -10 19 -1 22 1 12 8 -17 11 -26 11 -32 2z"/>
</g>
</svg>
